<svg width="24" height="24" viewBox="0 0 24 24" fill="none" xmlns="http://www.w3.org/2000/svg">
<path d="M7.96484 16.3047C7.71289 16.0586 7.71875 15.625 7.96484 15.3848L11.5684 11.7754L7.96484 8.17188C7.71875 7.93164 7.71289 7.50391 7.96484 7.24609C8.2168 6.99414 8.64453 7 8.89062 7.24609L12.4941 10.8496L16.0977 7.24609C16.3496 7 16.7656 7 17.0234 7.25195C17.2812 7.49805 17.2754 7.92578 17.0293 8.17188L13.4258 11.7754L17.0293 15.3848C17.2754 15.6309 17.2754 16.0527 17.0234 16.3047C16.7715 16.5625 16.3496 16.5566 16.0977 16.3105L12.4941 12.707L8.89062 16.3105C8.64453 16.5566 8.22266 16.5566 7.96484 16.3047Z" fill="black" fill-opacity="0.8"/>
</svg>
