<svg width="14" height="6" viewBox="0 0 14 6" fill="none" xmlns="http://www.w3.org/2000/svg">
<path d="M2.32715 2.26074H1.77637C1.17871 2.25781 0.692383 1.78613 0.692383 1.18555C0.692383 0.584961 1.17871 0.0957031 1.7793 0.0957031C2.37402 0.0957031 2.86328 0.584961 2.86328 1.18555V1.72754H4.10547V1.18555C4.10547 0.584961 4.5918 0.0957031 5.18945 0.0957031C5.78711 0.0957031 6.27344 0.584961 6.27344 1.18555C6.27344 1.78613 5.78711 2.25781 5.18945 2.26074H4.6416V3.51465H5.18945C5.78711 3.51465 6.27344 3.98633 6.27344 4.58984C6.27344 5.19043 5.78711 5.67676 5.18945 5.67676C4.5918 5.67676 4.10547 5.1875 4.10547 4.58984V4.04492H2.86328V4.58984C2.86328 5.1875 2.37402 5.67676 1.7793 5.67676C1.17871 5.67676 0.692383 5.19043 0.692383 4.58984C0.692383 3.98633 1.17871 3.51465 1.77637 3.51465H2.32715V2.26074ZM1.78516 1.73633H2.32422V1.19141C2.32422 0.883789 2.0752 0.634766 1.7793 0.634766C1.47754 0.634766 1.23145 0.883789 1.23145 1.18555C1.23145 1.4873 1.48047 1.73633 1.78516 1.73633ZM5.18066 1.73633C5.48535 1.73633 5.73438 1.4873 5.73438 1.18555C5.73438 0.883789 5.48828 0.634766 5.18945 0.634766C4.89062 0.634766 4.6416 0.883789 4.6416 1.19141V1.73633H5.18066ZM2.86328 3.51465H4.10547V2.26074H2.86328V3.51465ZM1.78516 4.03613C1.48047 4.03613 1.23145 4.28516 1.23145 4.58691C1.23145 4.88867 1.47754 5.13477 1.7793 5.13477C2.0752 5.13477 2.32422 4.88574 2.32422 4.57812V4.03613H1.78516ZM5.18066 4.03613H4.6416V4.57812C4.6416 4.88574 4.89062 5.13477 5.18945 5.13477C5.48828 5.13477 5.73438 4.88867 5.73438 4.58691C5.73438 4.28516 5.48535 4.03613 5.18066 4.03613ZM13.3076 2.88184C13.3076 2.96973 13.2695 3.05469 13.2021 3.11914L11.2686 5.0498C11.1982 5.11719 11.1221 5.14941 11.04 5.14941C10.8584 5.14941 10.7266 5.01758 10.7266 4.8418C10.7266 4.75098 10.7617 4.67188 10.8203 4.61621L11.4766 3.95117L12.3408 3.16016L11.6582 3.20117H8.0957C7.90234 3.20117 7.77051 3.06934 7.77051 2.88184C7.77051 2.69141 7.90234 2.5625 8.0957 2.5625H11.6582L12.3379 2.60352L11.4766 1.8125L10.8203 1.14746C10.7617 1.08887 10.7266 1.00977 10.7266 0.918945C10.7266 0.743164 10.8584 0.614258 11.04 0.614258C11.1221 0.614258 11.2012 0.643555 11.2744 0.716797L13.2021 2.64453C13.2695 2.70605 13.3076 2.79395 13.3076 2.88184Z" fill="black" fill-opacity="0.15"/>
</svg>
