<svg width="11" height="6" viewBox="0 0 11 6" fill="none" xmlns="http://www.w3.org/2000/svg">
<path d="M2.02051 2.26074H1.46973C0.87207 2.25781 0.385742 1.78613 0.385742 1.18555C0.385742 0.584961 0.87207 0.0957031 1.47266 0.0957031C2.06738 0.0957031 2.55664 0.584961 2.55664 1.18555V1.72754H3.79883V1.18555C3.79883 0.584961 4.28516 0.0957031 4.88281 0.0957031C5.48047 0.0957031 5.9668 0.584961 5.9668 1.18555C5.9668 1.78613 5.48047 2.25781 4.88281 2.26074H4.33496V3.51465H4.88281C5.48047 3.51465 5.9668 3.98633 5.9668 4.58984C5.9668 5.19043 5.48047 5.67676 4.88281 5.67676C4.28516 5.67676 3.79883 5.1875 3.79883 4.58984V4.04492H2.55664V4.58984C2.55664 5.1875 2.06738 5.67676 1.47266 5.67676C0.87207 5.67676 0.385742 5.19043 0.385742 4.58984C0.385742 3.98633 0.87207 3.51465 1.46973 3.51465H2.02051V2.26074ZM1.47852 1.73633H2.01758V1.19141C2.01758 0.883789 1.76855 0.634766 1.47266 0.634766C1.1709 0.634766 0.924805 0.883789 0.924805 1.18555C0.924805 1.4873 1.17383 1.73633 1.47852 1.73633ZM4.87402 1.73633C5.17871 1.73633 5.42773 1.4873 5.42773 1.18555C5.42773 0.883789 5.18164 0.634766 4.88281 0.634766C4.58398 0.634766 4.33496 0.883789 4.33496 1.19141V1.73633H4.87402ZM2.55664 3.51465H3.79883V2.26074H2.55664V3.51465ZM1.47852 4.03613C1.17383 4.03613 0.924805 4.28516 0.924805 4.58691C0.924805 4.88867 1.1709 5.13477 1.47266 5.13477C1.76855 5.13477 2.01758 4.88574 2.01758 4.57812V4.03613H1.47852ZM4.87402 4.03613H4.33496V4.57812C4.33496 4.88574 4.58398 5.13477 4.88281 5.13477C5.18164 5.13477 5.42773 4.88867 5.42773 4.58691C5.42773 4.28516 5.17871 4.03613 4.87402 4.03613ZM8.54785 5.07031C7.59863 5.07031 6.97168 4.61914 6.91895 3.875L6.91602 3.83105H7.55469L7.56055 3.86914C7.61914 4.25879 8.00879 4.50195 8.57422 4.50195C9.13965 4.50195 9.49707 4.24707 9.49707 3.85156V3.84863C9.49707 3.50879 9.26562 3.32422 8.70605 3.20117L8.24609 3.10449C7.41699 2.92871 7.01562 2.54785 7.01562 1.9209V1.91797C7.01855 1.19727 7.6543 0.702148 8.54785 0.702148C9.42969 0.702148 10.0332 1.18262 10.0771 1.8916L10.0801 1.94141H9.44141L9.43848 1.90039C9.37988 1.50781 9.04004 1.27051 8.53906 1.27051C8.01465 1.27344 7.68066 1.52246 7.68066 1.8916V1.89453C7.68066 2.21094 7.9209 2.4043 8.44824 2.51855L8.91113 2.61523C9.78418 2.7998 10.1592 3.1543 10.1592 3.80762V3.81055C10.1592 4.58105 9.5498 5.07031 8.54785 5.07031Z" fill="black" fill-opacity="0.15"/>
</svg>
