<svg width="10" height="11" viewBox="0 0 10 11" fill="none" xmlns="http://www.w3.org/2000/svg">
<path d="M2.32422 10.04C1.31836 10.04 0.771484 9.50781 0.771484 8.50195V3.76074C0.307617 3.64355 0.0488281 3.2627 0.0488281 2.7207V2.00781C0.0488281 1.34863 0.458984 0.923828 1.09375 0.923828H8.91113C9.57031 0.923828 9.95117 1.34863 9.95117 2.00781V2.7207C9.95117 3.2627 9.69238 3.64355 9.2334 3.76562V8.50195C9.2334 9.50293 8.68164 10.04 7.68066 10.04H2.32422ZM1.28418 2.9209H8.72559C8.9502 2.9209 9.04297 2.81836 9.04297 2.59375V2.12988C9.04297 1.90527 8.9502 1.80273 8.72559 1.80273H1.28418C1.05469 1.80273 0.961914 1.90527 0.961914 2.12988V2.59375C0.961914 2.81836 1.05469 2.9209 1.28418 2.9209ZM2.36328 9.12207H7.63672C8.04688 9.12207 8.27637 8.90234 8.27637 8.4873V3.7998H1.72852V8.4873C1.72852 8.90234 1.95312 9.12207 2.36328 9.12207ZM3.42773 5.79199C3.19824 5.79199 3.03223 5.63086 3.03223 5.3916V5.23535C3.03223 4.99609 3.19824 4.83496 3.42773 4.83496H6.58203C6.81152 4.83496 6.97754 4.99609 6.97754 5.23535V5.3916C6.97754 5.63086 6.81152 5.79199 6.58203 5.79199H3.42773Z" fill="black" fill-opacity="0.75"/>
</svg>
