<svg width="11" height="6" viewBox="0 0 11 6" fill="none" xmlns="http://www.w3.org/2000/svg">
<path d="M1.71289 2.26074H1.16211C0.564453 2.25781 0.078125 1.78613 0.078125 1.18555C0.078125 0.584961 0.564453 0.0957031 1.16504 0.0957031C1.75977 0.0957031 2.24902 0.584961 2.24902 1.18555V1.72754H3.49121V1.18555C3.49121 0.584961 3.97754 0.0957031 4.5752 0.0957031C5.17285 0.0957031 5.65918 0.584961 5.65918 1.18555C5.65918 1.78613 5.17285 2.25781 4.5752 2.26074H4.02734V3.51465H4.5752C5.17285 3.51465 5.65918 3.98633 5.65918 4.58984C5.65918 5.19043 5.17285 5.67676 4.5752 5.67676C3.97754 5.67676 3.49121 5.1875 3.49121 4.58984V4.04492H2.24902V4.58984C2.24902 5.1875 1.75977 5.67676 1.16504 5.67676C0.564453 5.67676 0.078125 5.19043 0.078125 4.58984C0.078125 3.98633 0.564453 3.51465 1.16211 3.51465H1.71289V2.26074ZM1.1709 1.73633H1.70996V1.19141C1.70996 0.883789 1.46094 0.634766 1.16504 0.634766C0.863281 0.634766 0.617188 0.883789 0.617188 1.18555C0.617188 1.4873 0.866211 1.73633 1.1709 1.73633ZM4.56641 1.73633C4.87109 1.73633 5.12012 1.4873 5.12012 1.18555C5.12012 0.883789 4.87402 0.634766 4.5752 0.634766C4.27637 0.634766 4.02734 0.883789 4.02734 1.19141V1.73633H4.56641ZM2.24902 3.51465H3.49121V2.26074H2.24902V3.51465ZM1.1709 4.03613C0.866211 4.03613 0.617188 4.28516 0.617188 4.58691C0.617188 4.88867 0.863281 5.13477 1.16504 5.13477C1.46094 5.13477 1.70996 4.88574 1.70996 4.57812V4.03613H1.1709ZM4.56641 4.03613H4.02734V4.57812C4.02734 4.88574 4.27637 5.13477 4.5752 5.13477C4.87402 5.13477 5.12012 4.88867 5.12012 4.58691C5.12012 4.28516 4.87109 4.03613 4.56641 4.03613ZM6.79883 5V0.772461H7.45508V2.55957H9.62598V0.772461H10.2822V5H9.62598V3.12793H7.45508V5H6.79883Z" fill="black" fill-opacity="0.15"/>
</svg>
