<svg width="24" height="24" viewBox="0 0 24 24" fill="none" xmlns="http://www.w3.org/2000/svg">
<path d="M7.26758 12.1973C7.26758 9.30273 9.60547 6.96484 12.5 6.96484C12.7988 6.96484 13.0859 7 13.3438 7.04688L11.9258 5.64648C11.8262 5.54102 11.7676 5.40625 11.7676 5.25391C11.7676 4.9375 12.0137 4.67969 12.3242 4.67969C12.4883 4.67969 12.6289 4.73828 12.7285 4.84961L15.1309 7.29297C15.248 7.41016 15.3125 7.5625 15.3125 7.71484C15.3125 7.87305 15.2539 8.01367 15.1309 8.13672L12.7285 10.5625C12.623 10.6621 12.4941 10.7207 12.3242 10.7207C12.0137 10.7207 11.7676 10.4746 11.7676 10.1523C11.7676 10 11.8203 9.87109 11.9316 9.76562L13.5137 8.19531C13.2207 8.13086 12.875 8.10742 12.5 8.10742C10.2441 8.10742 8.41602 9.93555 8.41602 12.1914C8.41602 14.4473 10.2441 16.2754 12.5 16.2754C14.7559 16.2754 16.584 14.4473 16.584 12.1914C16.584 11.8457 16.8066 11.5996 17.1406 11.5996C17.4863 11.5996 17.7324 11.8457 17.7324 12.1973C17.7324 15.0859 15.3887 17.4297 12.5 17.4297C9.60547 17.4297 7.26758 15.0859 7.26758 12.1973Z" fill="black" fill-opacity="0.8"/>
</svg>
