<svg width="14" height="3" viewBox="0 0 14 3" fill="none" xmlns="http://www.w3.org/2000/svg">
<path d="M1.9209 2.85645C1.20312 2.85645 0.62207 2.28223 0.62207 1.56445C0.62207 0.84668 1.20312 0.265625 1.9209 0.265625C2.63867 0.265625 3.21289 0.84668 3.21289 1.56445C3.21289 2.28223 2.63867 2.85645 1.9209 2.85645ZM7 2.85645C6.28223 2.85645 5.70117 2.28223 5.70117 1.56445C5.70117 0.84668 6.28223 0.265625 7 0.265625C7.71777 0.265625 8.29199 0.84668 8.29199 1.56445C8.29199 2.28223 7.71777 2.85645 7 2.85645ZM12.0791 2.85645C11.3613 2.85645 10.7803 2.28223 10.7803 1.56445C10.7803 0.84668 11.3613 0.265625 12.0791 0.265625C12.7969 0.265625 13.3779 0.84668 13.3779 1.56445C13.3779 2.28223 12.7969 2.85645 12.0791 2.85645Z" fill="black" fill-opacity="0.8"/>
</svg>
