<svg width="10" height="9" viewBox="0 0 10 9" fill="none" xmlns="http://www.w3.org/2000/svg">
<path d="M0.385742 4.46973C0.385742 4.32324 0.449219 4.17676 0.561523 4.07422L3.76953 0.861328C3.89648 0.739258 4.02832 0.69043 4.16016 0.69043C4.46777 0.69043 4.6875 0.905273 4.6875 1.19824C4.6875 1.34961 4.62891 1.48145 4.53125 1.5791L3.4375 2.6875L1.99707 4.00586L3.13477 3.9375H9.07227C9.38965 3.9375 9.61426 4.15234 9.61426 4.46973C9.61426 4.78223 9.38965 5.00195 9.07227 5.00195H3.13477L1.99219 4.93359L3.4375 6.25195L4.53125 7.36035C4.62891 7.45312 4.6875 7.58496 4.6875 7.73633C4.6875 8.0293 4.46777 8.24902 4.16016 8.24902C4.02832 8.24902 3.89648 8.19531 3.7793 8.08301L0.561523 4.86523C0.449219 4.75781 0.385742 4.61621 0.385742 4.46973Z" fill="black" fill-opacity="0.75"/>
</svg>
