<svg width="10" height="9" viewBox="0 0 10 9" fill="none" xmlns="http://www.w3.org/2000/svg">
<path d="M9.61426 4.46973C9.61426 4.61621 9.55078 4.75781 9.43848 4.86523L6.21582 8.08301C6.09863 8.19531 5.97168 8.24902 5.83496 8.24902C5.53223 8.24902 5.3125 8.0293 5.3125 7.73633C5.3125 7.58496 5.37109 7.45312 5.46875 7.36035L6.5625 6.25195L8.00293 4.93359L6.86523 5.00195H0.927734C0.605469 5.00195 0.385742 4.78223 0.385742 4.46973C0.385742 4.15234 0.605469 3.9375 0.927734 3.9375H6.86523L7.99805 4.00586L6.5625 2.6875L5.46875 1.5791C5.37109 1.48145 5.3125 1.34961 5.3125 1.19824C5.3125 0.905273 5.53223 0.69043 5.83496 0.69043C5.97168 0.69043 6.10352 0.739258 6.22559 0.861328L9.43848 4.07422C9.55078 4.17676 9.61426 4.32324 9.61426 4.46973Z" fill="black" fill-opacity="0.75"/>
</svg>
