<svg width="12" height="11" viewBox="0 0 12 11" fill="none" xmlns="http://www.w3.org/2000/svg">
<path d="M1.81543 10.0352C0.760742 10.0352 0.213867 9.49316 0.213867 8.45312V2.50586C0.213867 1.46094 0.760742 0.923828 1.81543 0.923828H10.1797C11.2344 0.923828 11.7812 1.46582 11.7812 2.50586V8.45312C11.7812 9.49316 11.2344 10.0352 10.1797 10.0352H1.81543ZM1.87402 9.07812H10.1211C10.5703 9.07812 10.8242 8.84375 10.8242 8.37012V2.58887C10.8242 2.11523 10.5703 1.87598 10.1211 1.87598H1.87402C1.41992 1.87598 1.1709 2.11523 1.1709 2.58887V8.37012C1.1709 8.84375 1.41992 9.07812 1.87402 9.07812ZM2.26953 4.45898C1.99121 4.45898 1.88379 4.3418 1.88379 4.06348V2.98438C1.88379 2.70605 1.99121 2.58887 2.26953 2.58887H9.72559C9.99902 2.58887 10.1113 2.70605 10.1113 2.98438V4.06348C10.1113 4.3418 9.99902 4.45898 9.72559 4.45898H2.26953Z" fill="black" fill-opacity="0.75"/>
</svg>
