<svg width="12" height="13" viewBox="0 0 12 13" fill="none" xmlns="http://www.w3.org/2000/svg">
<path d="M0.423828 6.87012C0.204102 6.87012 0.0283203 6.69922 0.0283203 6.47949C0.0283203 6.25977 0.204102 6.08887 0.423828 6.08887H1.33203C1.51758 3.81348 3.33398 1.99707 5.60938 1.80664V0.90332C5.60938 0.683594 5.78027 0.507812 6 0.507812C6.21973 0.507812 6.39062 0.683594 6.39062 0.90332V1.80664C8.66602 1.99707 10.4824 3.81348 10.668 6.08887H11.5762C11.7959 6.08887 11.9668 6.25977 11.9668 6.47949C11.9668 6.69922 11.7959 6.87012 11.5762 6.87012H10.668C10.4727 9.14062 8.66113 10.9521 6.39062 11.1377V12.0557C6.39062 12.2754 6.21973 12.4512 6 12.4512C5.78027 12.4512 5.60938 12.2754 5.60938 12.0557V11.1377C3.33887 10.9521 1.52734 9.14062 1.33691 6.87012H0.423828ZM6 4.58008C5.78027 4.58008 5.60938 4.4043 5.60938 4.18457V2.74902C3.85156 2.92969 2.45508 4.33105 2.27441 6.08887H3.7002C3.91992 6.08887 4.0957 6.25977 4.0957 6.47949C4.0957 6.69922 3.91992 6.87012 3.7002 6.87012H2.27441C2.45996 8.62305 3.85645 10.0146 5.60938 10.2002V8.77441C5.60938 8.55469 5.78027 8.38379 6 8.38379C6.21973 8.38379 6.39062 8.55469 6.39062 8.77441V10.2002C8.14355 10.0146 9.54004 8.62305 9.72559 6.87012H8.29492C8.0752 6.87012 7.89941 6.69922 7.89941 6.47949C7.89941 6.25977 8.0752 6.08887 8.29492 6.08887H9.72559C9.5498 4.33105 8.14844 2.92969 6.39062 2.74902V4.18457C6.39062 4.4043 6.21973 4.58008 6 4.58008Z" fill="black" fill-opacity="0.75"/>
</svg>
