<svg width="12" height="13" viewBox="0 0 12 13" fill="none" xmlns="http://www.w3.org/2000/svg">
<path d="M0.360352 6.56445C0.360352 6.22949 0.640625 5.94922 0.96875 5.94922H5.3916V1.5332C5.3916 1.20508 5.66504 0.924805 6 0.924805C6.33496 0.924805 6.61523 1.20508 6.61523 1.5332V5.94922H11.0312C11.3594 5.94922 11.6396 6.22949 11.6396 6.56445C11.6396 6.89941 11.3594 7.17285 11.0312 7.17285H6.61523V11.5957C6.61523 11.9238 6.33496 12.2041 6 12.2041C5.66504 12.2041 5.3916 11.9238 5.3916 11.5957V7.17285H0.96875C0.640625 7.17285 0.360352 6.89941 0.360352 6.56445Z" fill="black" fill-opacity="0.8"/>
</svg>
