<svg width="12" height="11" viewBox="0 0 12 11" fill="none" xmlns="http://www.w3.org/2000/svg">
<path d="M5.50684 10.7725C5.09668 10.7725 4.7793 10.5234 4.69141 10.1377L4.49121 9.27344L4.35938 9.22461L3.60742 9.68848C3.27051 9.89844 2.87012 9.84961 2.58203 9.56152L1.89844 8.87793C1.60547 8.58984 1.56152 8.18945 1.77148 7.85254L2.24023 7.10547L2.19141 6.9834L1.33203 6.7832C0.946289 6.69043 0.697266 6.36816 0.697266 5.96777V5.00586C0.697266 4.60547 0.941406 4.28809 1.33203 4.19043L2.18164 3.98535L2.23535 3.8584L1.7666 3.11133C1.55664 2.77441 1.60059 2.37402 1.89355 2.08105L2.57715 1.39746C2.86035 1.11426 3.26074 1.06055 3.60254 1.27051L4.35449 1.72949L4.49121 1.67578L4.69141 0.811523C4.7793 0.425781 5.09668 0.176758 5.50684 0.176758H6.49316C6.89844 0.176758 7.21582 0.425781 7.30859 0.811523L7.50879 1.67578L7.64551 1.72949L8.39746 1.27051C8.73438 1.06055 9.13477 1.11426 9.41797 1.39746L10.1016 2.08105C10.3994 2.37402 10.4385 2.77441 10.2285 3.11133L9.76465 3.8584L9.81348 3.98535L10.668 4.19043C11.0537 4.28809 11.3027 4.60547 11.3027 5.00586V5.96777C11.3027 6.36816 11.0488 6.69043 10.668 6.7832L9.80371 6.9834L9.75977 7.10547L10.2236 7.85254C10.4336 8.18945 10.3896 8.58984 10.0967 8.87793L9.41309 9.56152C9.12988 9.84961 8.72949 9.89844 8.3877 9.68848L7.63574 9.22461L7.50879 9.27344L7.30859 10.1377C7.21582 10.5234 6.89844 10.7725 6.49316 10.7725H5.50684ZM5.62402 9.88867H6.37598C6.45898 9.88867 6.49805 9.85449 6.50781 9.77637L6.80078 8.5752C7.12305 8.50195 7.40137 8.37988 7.64062 8.22852L8.69531 8.87793C8.75391 8.91699 8.81738 8.91699 8.87598 8.85352L9.39355 8.33105C9.44727 8.28223 9.44727 8.22363 9.4082 8.16016L8.76367 7.10547C8.89551 6.87598 9.02734 6.58301 9.10059 6.27539L10.3066 5.9873C10.3799 5.97266 10.4189 5.93359 10.4189 5.85059V5.11816C10.4189 5.03027 10.3848 4.99609 10.3066 4.97656L9.10547 4.69336C9.03223 4.36621 8.88574 4.06348 8.76855 3.85352L9.41309 2.80371C9.45703 2.73535 9.45703 2.67676 9.39844 2.62305L8.87598 2.11035C8.81738 2.05176 8.76855 2.04688 8.69531 2.08594L7.64551 2.72559C7.40625 2.58887 7.11816 2.45703 6.80078 2.38379L6.50781 1.17285C6.49805 1.09473 6.45898 1.06055 6.37598 1.06055H5.62402C5.54102 1.06055 5.50195 1.09961 5.4873 1.17285L5.19922 2.37402C4.8916 2.45215 4.56934 2.58887 4.34961 2.7207L3.2998 2.08105C3.22656 2.04199 3.17773 2.05176 3.11426 2.10547L2.59668 2.61816C2.53809 2.67676 2.53809 2.73535 2.58203 2.80371L3.22656 3.85352C3.10938 4.06348 2.96777 4.36621 2.89453 4.69336L1.68848 4.97656C1.61523 4.99609 1.58105 5.03027 1.58105 5.11816V5.85059C1.58105 5.93359 1.61523 5.97266 1.68848 5.9873L2.89453 6.27539C2.96777 6.58301 3.09961 6.87598 3.23633 7.10547L2.58691 8.16016C2.54297 8.22363 2.54785 8.28223 2.60156 8.33594L3.11914 8.85352C3.17773 8.91699 3.24121 8.91699 3.2998 8.87793L4.35449 8.22852C4.59375 8.37988 4.88672 8.50195 5.19922 8.5752L5.4873 9.77637C5.50195 9.84961 5.54102 9.88867 5.62402 9.88867ZM6 7.3252C4.97461 7.3252 4.14453 6.5 4.14453 5.47461C4.14453 4.44922 4.97461 3.62402 6 3.62402C7.02051 3.62402 7.85059 4.44922 7.85059 5.47461C7.85059 6.5 7.02051 7.3252 6 7.3252ZM6 6.48535C6.55664 6.48535 7.01074 6.03613 7.01074 5.47461C7.01074 4.91309 6.55664 4.45898 6 4.45898C5.43848 4.45898 4.98438 4.91309 4.98438 5.47461C4.98438 6.03613 5.43848 6.48535 6 6.48535Z" fill="black" fill-opacity="0.75"/>
</svg>
